HIERARCHY
ROOT Hips
{
 OFFSET 0.000000 0.000000 0.000000
 CHANNELS 6 Xposition Yposition Zposition Yrotation Xrotation Zrotation
 JOINT Chest
 {
  OFFSET 0.000000 9.585900 0.002600
  CHANNELS 3 Yrotation Xrotation Zrotation
  JOINT Chest2
  {
   OFFSET 0.000000 9.601200 -0.005300
   CHANNELS 3 Yrotation Xrotation Zrotation
   JOINT Chest3
   {
    OFFSET 0.000000 9.561800 0.000000
    CHANNELS 3 Yrotation Xrotation Zrotation
    JOINT Chest4
    {
     OFFSET 0.000000 9.552100 0.000000
     CHANNELS 3 Yrotation Xrotation Zrotation
     JOINT Neck
     {
      OFFSET 0.000000 14.453000 0.000000
      CHANNELS 3 Yrotation Xrotation Zrotation
      JOINT Head
      {
       OFFSET 0.000000 8.936500 -0.011300
       CHANNELS 3 Yrotation Xrotation Zrotation
       End Site
       {
        OFFSET 0.000000 17.073600 -0.006000
       }
      }
     }
     JOINT RightCollar
     {
      OFFSET -2.921100 9.558500 0.000000
      CHANNELS 3 Yrotation Xrotation Zrotation
      JOINT RightShoulder
      {
       OFFSET -13.519700 0.000000 0.000000
       CHANNELS 3 Yrotation Xrotation Zrotation
       JOINT RightElbow
       {
        OFFSET 0.000000 -29.696600 0.000000
        CHANNELS 3 Yrotation Xrotation Zrotation
        JOINT RightWrist
        {
         OFFSET 0.000000 -24.004700 0.000000
         CHANNELS 3 Yrotation Xrotation Zrotation
         End Site
         {
          OFFSET 0.000000 -17.728500 0.000000
         }
        }
       }
      }
     }
     JOINT LeftCollar
     {
      OFFSET 2.921100 9.558500 0.000000
      CHANNELS 3 Yrotation Xrotation Zrotation
      JOINT LeftShoulder
      {
       OFFSET 13.519700 0.000000 0.000000
       CHANNELS 3 Yrotation Xrotation Zrotation
       JOINT LeftElbow
       {
        OFFSET 0.000000 -29.696600 0.000000
        CHANNELS 3 Yrotation Xrotation Zrotation
        JOINT LeftWrist
        {
         OFFSET 0.000000 -24.004700 0.000000
         CHANNELS 3 Yrotation Xrotation Zrotation
         End Site
         {
          OFFSET 0.000000 -17.728500 0.000000
         }
        }
       }
      }
     }
    }
   }
  }
 }
 JOINT RightHip
 {
  OFFSET -7.771700 -0.012900 -0.001300
  CHANNELS 3 Yrotation Xrotation Zrotation
  JOINT RightKnee
  {
   OFFSET 0.000000 -40.869800 0.001200
   CHANNELS 3 Yrotation Xrotation Zrotation
   JOINT RightAnkle
   {
    OFFSET 0.000000 -39.717900 0.002100
    CHANNELS 3 Yrotation Xrotation Zrotation
    JOINT RightToe
    {
     OFFSET 0.000000 -4.965400 11.033500
     CHANNELS 3 Yrotation Xrotation Zrotation
     End Site
     {
      OFFSET 0.000000 -1.423100 5.872300
     }
    }
   }
  }
 }
 JOINT LeftHip
 {
  OFFSET 7.771700 -0.012900 -0.001300
  CHANNELS 3 Yrotation Xrotation Zrotation
  JOINT LeftKnee
  {
   OFFSET 0.000000 -40.869800 0.001200
   CHANNELS 3 Yrotation Xrotation Zrotation
   JOINT LeftAnkle
   {
    OFFSET 0.000000 -39.717900 0.002100
    CHANNELS 3 Yrotation Xrotation Zrotation
    JOINT LeftToe
    {
     OFFSET 0.000000 -4.965400 11.033500
     CHANNELS 3 Yrotation Xrotation Zrotation
     End Site
     {
      OFFSET 0.000000 -1.423100 5.872300
     }
    }
   }
  }
 }
}
MOTION
Frames: 5
Frame Time: 0.008333
0.000000 85.388000 0.000000 0.000000 -5.767877 0.000000 0.000000 11.653817 0.000000 0.000000 -5.885947 0.000000 0.000000 -0.000000 0.000000 0.000000 -0.000000 0.000000 0.000000 12.528835 0.000000 0.000000 0.711642 0.000000 0.000000 -0.000000 0.000000 0.000000 0.000000 -90.000000 0.000000 -2.309062 0.000000 0.000000 2.309062 0.000000 0.000000 -0.000000 0.000000 0.000000 -0.000000 90.000000 0.000000 -2.309062 0.000000 0.000000 2.309062 0.000000 0.000000 8.520406 0.000000 0.000000 1.905762 0.000000 -0.000000 -4.658285 0.000000 0.000000 -0.000000 0.000000 0.000000 8.520406 0.000000 0.000000 1.905762 0.000000 -0.000000 -4.658285 0.000000 0.000000 -0.000000 0.000000
-218.911728 57.240591 135.241625 174.235679 -32.055043 -1.519690 2.584047 21.478997 2.431777 0.279633 2.903496 0.299287 0.465039 4.728592 0.502529 2.082536 18.240584 2.205975 -2.311187 14.405792 -1.025612 -3.947930 -9.029022 -1.036366 3.909686 -2.257564 -1.399177 15.701495 -17.350643 -21.320842 135.742157 -70.933368 -97.682320 15.945915 -12.980155 -39.388665 -6.070611 -4.237924 -1.812281 -2.579966 -8.594672 -0.176889 37.786481 -37.331598 -78.812286 5.673103 -10.357569 9.615866 5.001557 -44.418104 -3.053233 -13.291438 67.280006 -15.925800 7.763853 24.388217 5.413751 -0.446039 -16.172755 3.543133 -9.156228 -41.408734 6.010710 32.805343 69.628249 35.021847 -14.242742 3.439121 -7.017508 0.050887 0.246877 0.013532
-218.912200 57.241883 135.242005 174.243509 -32.060730 -1.533128 2.580313 21.482891 2.435990 0.280343 2.903979 0.302079 0.464808 4.726515 0.499785 2.084742 18.238739 2.206782 -2.172381 14.459029 -0.977787 -3.704875 -8.925026 -1.006184 3.902809 -2.247292 -1.395446 15.693012 -17.349803 -21.314740 135.775265 -70.929901 -97.707778 15.947695 -12.981875 -39.390881 -6.070503 -4.234502 -1.817088 -2.582400 -8.600893 -0.164444 37.794106 -37.352228 -78.816457 5.695130 -10.345994 9.615508 4.983869 -44.408312 -3.039309 -13.298938 67.276274 -15.929898 7.760443 24.378141 5.409105 -0.439140 -16.164097 3.541082 -9.162751 -41.399757 6.010996 32.791857 69.623515 35.022001 -14.236702 3.435762 -7.027668 0.048491 0.251975 0.018625
-218.913633 57.242889 135.243082 174.244219 -32.063151 -1.538809 2.582911 21.478353 2.438482 0.280387 2.896402 0.298803 0.464690 4.725876 0.500875 2.085234 18.244406 2.211576 -2.035976 14.514391 -0.932115 -3.468506 -8.820589 -0.973175 3.900708 -2.235959 -1.393697 15.680246 -17.348014 -21.313151 135.816248 -70.931584 -97.738513 15.953587 -12.986919 -39.397633 -6.067660 -4.227793 -1.824017 -2.590321 -8.603081 -0.157739 37.799601 -37.360619 -78.811175 5.685963 -10.352987 9.602587 4.977605 -44.403804 -3.031234 -13.295054 67.272613 -15.924260 7.746123 24.377938 5.406535 -0.428795 -16.160911 3.536882 -9.159251 -41.395878 6.009452 32.776308 69.620958 35.014674 -14.232388 3.436500 -7.030750 0.055870 0.253397 0.020955
-218.913978 57.244007 135.244373 174.242780 -32.066960 -1.550561 2.589142 21.472137 2.446668 0.280577 2.896752 0.297886 0.464917 4.732496 0.506418 2.085292 18.237232 2.212547 -1.903268 14.568298 -0.888679 -3.242615 -8.716328 -0.935735 3.898542 -2.224270 -1.393308 15.669106 -17.344994 -21.304672 135.874202 -70.933717 -97.781046 15.967378 -12.980745 -39.399561 -6.066605 -4.220246 -1.829850 -2.580722 -8.599974 -0.156663 37.789339 -37.367179 -78.809729 5.686098 -10.351942 9.598443 4.966702 -44.394062 -3.012959 -13.296865 67.260753 -15.920133 7.732941 24.377433 5.397580 -0.429512 -16.153581 3.539035 -9.162078 -41.390767 6.017139 32.776023 69.618787 35.020767 -14.225450 3.436915 -7.029331 0.046769 0.253527 0.019505
